<svg width="24" height="24" viewBox="0 0 24 24" fill="none" xmlns="http://www.w3.org/2000/svg">
<mask id="mask0_106_111441" style="mask-type:alpha" maskUnits="userSpaceOnUse" x="0" y="0" width="24" height="24">
<rect width="24" height="24" fill="#D9D9D9"/>
</mask>
<g mask="url(#mask0_106_111441)">
<path d="M5.3 21.5C4.8 21.5 4.375 21.325 4.025 20.975C3.675 20.625 3.5 20.2 3.5 19.7V8.3C3.5 7.8 3.675 7.375 4.025 7.025C4.375 6.675 4.8 6.5 5.3 6.5H7.5C7.5 5.25 7.93733 4.18733 8.812 3.312C9.68733 2.43733 10.75 2 12 2C13.25 2 14.3127 2.43733 15.188 3.312C16.0627 4.18733 16.5 5.25 16.5 6.5H18.7C19.2 6.5 19.625 6.675 19.975 7.025C20.325 7.375 20.5 7.8 20.5 8.3V19.7C20.5 20.2 20.325 20.625 19.975 20.975C19.625 21.325 19.2 21.5 18.7 21.5H5.3ZM5.3 20H18.7C18.7667 20 18.8333 19.9667 18.9 19.9C18.9667 19.8333 19 19.7667 19 19.7V8.3C19 8.23333 18.9667 8.16667 18.9 8.1C18.8333 8.03333 18.7667 8 18.7 8H5.3C5.23333 8 5.16667 8.03333 5.1 8.1C5.03333 8.16667 5 8.23333 5 8.3V19.7C5 19.7667 5.03333 19.8333 5.1 19.9C5.16667 19.9667 5.23333 20 5.3 20ZM12 13.5C13.25 13.5 14.3127 13.0627 15.188 12.188C16.0627 11.3127 16.5 10.25 16.5 9H15C15 9.83333 14.7083 10.5417 14.125 11.125C13.5417 11.7083 12.8333 12 12 12C11.1667 12 10.4583 11.7083 9.875 11.125C9.29167 10.5417 9 9.83333 9 9H7.5C7.5 10.25 7.93733 11.3127 8.812 12.188C9.68733 13.0627 10.75 13.5 12 13.5ZM9 6.5H15C15 5.66667 14.7083 4.95833 14.125 4.375C13.5417 3.79167 12.8333 3.5 12 3.5C11.1667 3.5 10.4583 3.79167 9.875 4.375C9.29167 4.95833 9 5.66667 9 6.5Z" fill="#4B465C"/>
<path d="M5.3 21.5C4.8 21.5 4.375 21.325 4.025 20.975C3.675 20.625 3.5 20.2 3.5 19.7V8.3C3.5 7.8 3.675 7.375 4.025 7.025C4.375 6.675 4.8 6.5 5.3 6.5H7.5C7.5 5.25 7.93733 4.18733 8.812 3.312C9.68733 2.43733 10.75 2 12 2C13.25 2 14.3127 2.43733 15.188 3.312C16.0627 4.18733 16.5 5.25 16.5 6.5H18.7C19.2 6.5 19.625 6.675 19.975 7.025C20.325 7.375 20.5 7.8 20.5 8.3V19.7C20.5 20.2 20.325 20.625 19.975 20.975C19.625 21.325 19.2 21.5 18.7 21.5H5.3ZM5.3 20H18.7C18.7667 20 18.8333 19.9667 18.9 19.9C18.9667 19.8333 19 19.7667 19 19.7V8.3C19 8.23333 18.9667 8.16667 18.9 8.1C18.8333 8.03333 18.7667 8 18.7 8H5.3C5.23333 8 5.16667 8.03333 5.1 8.1C5.03333 8.16667 5 8.23333 5 8.3V19.7C5 19.7667 5.03333 19.8333 5.1 19.9C5.16667 19.9667 5.23333 20 5.3 20ZM12 13.5C13.25 13.5 14.3127 13.0627 15.188 12.188C16.0627 11.3127 16.5 10.25 16.5 9H15C15 9.83333 14.7083 10.5417 14.125 11.125C13.5417 11.7083 12.8333 12 12 12C11.1667 12 10.4583 11.7083 9.875 11.125C9.29167 10.5417 9 9.83333 9 9H7.5C7.5 10.25 7.93733 11.3127 8.812 12.188C9.68733 13.0627 10.75 13.5 12 13.5ZM9 6.5H15C15 5.66667 14.7083 4.95833 14.125 4.375C13.5417 3.79167 12.8333 3.5 12 3.5C11.1667 3.5 10.4583 3.79167 9.875 4.375C9.29167 4.95833 9 5.66667 9 6.5Z" fill="white" fill-opacity="0.2"/>
</g>
</svg>
