<svg width="19" height="19" viewBox="0 0 19 19" fill="none" xmlns="http://www.w3.org/2000/svg">
<mask id="mask0_403_104895" style="mask-type:alpha" maskUnits="userSpaceOnUse" x="0" y="0" width="19" height="19">
<rect x="0.5" y="0.5" width="18" height="18" fill="#D9D9D9"/>
</mask>
<g mask="url(#mask0_403_104895)">
<path d="M4.475 16.625C4.1 16.625 3.78125 16.4938 3.51875 16.2313C3.25625 15.9688 3.125 15.65 3.125 15.275V6.725C3.125 6.35 3.25625 6.03125 3.51875 5.76875C3.78125 5.50625 4.1 5.375 4.475 5.375H6.125C6.125 4.4375 6.453 3.6405 7.109 2.984C7.7655 2.328 8.5625 2 9.5 2C10.4375 2 11.2345 2.328 11.891 2.984C12.547 3.6405 12.875 4.4375 12.875 5.375H14.525C14.9 5.375 15.2188 5.50625 15.4813 5.76875C15.7438 6.03125 15.875 6.35 15.875 6.725V15.275C15.875 15.65 15.7438 15.9688 15.4813 16.2313C15.2188 16.4938 14.9 16.625 14.525 16.625H4.475ZM4.475 15.5H14.525C14.575 15.5 14.625 15.475 14.675 15.425C14.725 15.375 14.75 15.325 14.75 15.275V6.725C14.75 6.675 14.725 6.625 14.675 6.575C14.625 6.525 14.575 6.5 14.525 6.5H4.475C4.425 6.5 4.375 6.525 4.325 6.575C4.275 6.625 4.25 6.675 4.25 6.725V15.275C4.25 15.325 4.275 15.375 4.325 15.425C4.375 15.475 4.425 15.5 4.475 15.5ZM9.5 10.625C10.4375 10.625 11.2345 10.297 11.891 9.641C12.547 8.9845 12.875 8.1875 12.875 7.25H11.75C11.75 7.875 11.5312 8.40625 11.0938 8.84375C10.6563 9.28125 10.125 9.5 9.5 9.5C8.875 9.5 8.34375 9.28125 7.90625 8.84375C7.46875 8.40625 7.25 7.875 7.25 7.25H6.125C6.125 8.1875 6.453 8.9845 7.109 9.641C7.7655 10.297 8.5625 10.625 9.5 10.625ZM7.25 5.375H11.75C11.75 4.75 11.5312 4.21875 11.0938 3.78125C10.6563 3.34375 10.125 3.125 9.5 3.125C8.875 3.125 8.34375 3.34375 7.90625 3.78125C7.46875 4.21875 7.25 4.75 7.25 5.375Z" fill="white"/>
</g>
</svg>
