<svg width="40" height="40" viewBox="0 0 40 40" fill="none" xmlns="http://www.w3.org/2000/svg">
<mask id="mask0_133_113590" style="mask-type:alpha" maskUnits="userSpaceOnUse" x="0" y="0" width="40" height="40">
<rect width="40" height="40" fill="#D9D9D9"/>
</mask>
<g mask="url(#mask0_133_113590)">
<path d="M36.667 9.458V30.542C36.667 31.292 36.389 31.9447 35.833 32.5C35.2777 33.0553 34.625 33.333 33.875 33.333H6.12499C5.37499 33.333 4.72233 33.0553 4.16699 32.5C3.61099 31.9447 3.33299 31.292 3.33299 30.542V9.458C3.33299 8.708 3.61099 8.05533 4.16699 7.5C4.72233 6.94467 5.37499 6.667 6.12499 6.667H33.875C34.625 6.667 35.2777 6.94467 35.833 7.5C36.389 8.05533 36.667 8.708 36.667 9.458ZM6.12499 13.583H33.875V9.458H6.12499V13.583ZM6.12499 19.375V30.542H33.875V19.375H6.12499Z" fill="#C01818"/>
</g>
</svg>
