<svg width="40" height="40" viewBox="0 0 40 40" fill="none" xmlns="http://www.w3.org/2000/svg">
<mask id="mask0_133_113566" style="mask-type:alpha" maskUnits="userSpaceOnUse" x="0" y="0" width="40" height="40">
<rect width="40" height="40" fill="#D9D9D9"/>
</mask>
<g mask="url(#mask0_133_113566)">
<path d="M9.54199 33.292C8.18066 33.292 7.02066 32.8127 6.06199 31.854C5.10399 30.896 4.62499 29.7363 4.62499 28.375H1.66699V9.458C1.66699 8.708 1.94466 8.05533 2.49999 7.5C3.05533 6.94467 3.70799 6.667 4.45799 6.667H28.292V13.542H32.875L38.333 20.792V28.375H35.25C35.25 29.7363 34.7707 30.896 33.812 31.854C32.854 32.8127 31.6807 33.292 30.292 33.292C28.9307 33.292 27.7707 32.8127 26.812 31.854C25.854 30.896 25.375 29.7363 25.375 28.375H14.5C14.5 29.7363 14.0207 30.896 13.062 31.854C12.104 32.8127 10.9307 33.292 9.54199 33.292ZM9.54199 30.542C10.1527 30.542 10.6663 30.3267 11.083 29.896C11.4997 29.4653 11.708 28.9583 11.708 28.375C11.708 27.7637 11.4997 27.2497 11.083 26.833C10.6663 26.4163 10.1527 26.208 9.54199 26.208C8.95866 26.208 8.45166 26.4163 8.02099 26.833C7.59033 27.2497 7.37499 27.7637 7.37499 28.375C7.37499 28.9583 7.59033 29.4653 8.02099 29.896C8.45166 30.3267 8.95866 30.542 9.54199 30.542ZM4.45799 25.583H5.49999C5.97199 24.9163 6.54833 24.3817 7.22899 23.979C7.90966 23.5763 8.68066 23.375 9.54199 23.375C10.3753 23.375 11.139 23.5833 11.833 24C12.5277 24.4167 13.111 24.9443 13.583 25.583H25.542V9.458H4.45799V25.583ZM30.292 30.542C30.9027 30.542 31.4163 30.3267 31.833 29.896C32.2497 29.4653 32.458 28.9583 32.458 28.375C32.458 27.7637 32.2497 27.2497 31.833 26.833C31.4163 26.4163 30.9027 26.208 30.292 26.208C29.7087 26.208 29.2017 26.4163 28.771 26.833C28.3403 27.2497 28.125 27.7637 28.125 28.375C28.125 28.9583 28.3403 29.4653 28.771 29.896C29.2017 30.3267 29.7087 30.542 30.292 30.542ZM28.292 22.083H35.833L31.5 16.292H28.292V22.083Z" fill="#C01818"/>
</g>
</svg>
