<svg width="40" height="40" viewBox="0 0 40 40" fill="none" xmlns="http://www.w3.org/2000/svg">
<mask id="mask0_133_113599" style="mask-type:alpha" maskUnits="userSpaceOnUse" x="0" y="0" width="40" height="40">
<rect width="40" height="40" fill="#D9D9D9"/>
</mask>
<g mask="url(#mask0_133_113599)">
<path d="M12.208 17.792C10.6807 17.792 9.37533 17.2503 8.292 16.167C7.20867 15.0837 6.667 13.764 6.667 12.208C6.667 10.6807 7.20867 9.37533 8.292 8.292C9.37533 7.20867 10.6807 6.667 12.208 6.667C13.764 6.667 15.0837 7.20867 16.167 8.292C17.2503 9.37533 17.792 10.6807 17.792 12.208C17.792 13.764 17.2503 15.0837 16.167 16.167C15.0837 17.2503 13.764 17.792 12.208 17.792ZM12.208 15C12.986 15 13.646 14.7293 14.188 14.188C14.7293 13.646 15 12.986 15 12.208C15 11.458 14.7293 10.8123 14.188 10.271C13.646 9.729 12.986 9.458 12.208 9.458C11.458 9.458 10.8123 9.729 10.271 10.271C9.729 10.8123 9.458 11.458 9.458 12.208C9.458 12.986 9.729 13.646 10.271 14.188C10.8123 14.7293 11.458 15 12.208 15ZM27.792 33.333C26.236 33.333 24.9163 32.7913 23.833 31.708C22.7497 30.6247 22.208 29.3193 22.208 27.792C22.208 26.236 22.7497 24.9163 23.833 23.833C24.9163 22.7497 26.236 22.208 27.792 22.208C29.3193 22.208 30.6247 22.7497 31.708 23.833C32.7913 24.9163 33.333 26.236 33.333 27.792C33.333 29.3193 32.7913 30.6247 31.708 31.708C30.6247 32.7913 29.3193 33.333 27.792 33.333ZM27.792 30.542C28.542 30.542 29.1877 30.271 29.729 29.729C30.271 29.1877 30.542 28.542 30.542 27.792C30.542 27.014 30.271 26.354 29.729 25.812C29.1877 25.2707 28.542 25 27.792 25C27.014 25 26.354 25.2707 25.812 25.812C25.2707 26.354 25 27.014 25 27.792C25 28.542 25.2707 29.1877 25.812 29.729C26.354 30.271 27.014 30.542 27.792 30.542ZM8.625 33.333L6.667 31.375L31.375 6.667L33.333 8.625L8.625 33.333Z" fill="#C01818"/>
</g>
</svg>
