<svg width="40" height="40" viewBox="0 0 40 40" fill="none" xmlns="http://www.w3.org/2000/svg">
<mask id="mask0_133_113579" style="mask-type:alpha" maskUnits="userSpaceOnUse" x="0" y="0" width="40" height="40">
<rect width="40" height="40" fill="#D9D9D9"/>
</mask>
<g mask="url(#mask0_133_113579)">
<path d="M18.208 25.667L27.667 16.208L25.708 14.25L18.292 21.708L14.292 17.708L12.292 19.75L18.208 25.667ZM20 36.625C16.1113 35.653 12.917 33.41 10.417 29.896C7.91699 26.382 6.66699 22.514 6.66699 18.292V8.292L20 3.292L33.333 8.292V18.292C33.333 22.514 32.083 26.382 29.583 29.896C27.083 33.41 23.8887 35.653 20 36.625ZM20 33.75C23.0833 32.75 25.611 30.8127 27.583 27.938C29.5557 25.0627 30.542 21.8473 30.542 18.292V10.25L20 6.25L9.45799 10.25V18.292C9.45799 21.8473 10.4443 25.0627 12.417 27.938C14.389 30.8127 16.9167 32.75 20 33.75Z" fill="#C01818"/>
</g>
</svg>
