<svg width="100" height="100" viewBox="0 0 100 100" fill="none" xmlns="http://www.w3.org/2000/svg">
<g clip-path="url(#clip0_102_111438)">
<mask id="mask0_102_111438" style="mask-type:luminance" maskUnits="userSpaceOnUse" x="0" y="0" width="100" height="100">
<path d="M100 0H0V100H100V0Z" fill="white"/>
</mask>
<g mask="url(#mask0_102_111438)">
<path d="M69.7555 12.7017V20.5528C64.3792 17.4519 58.1324 13.8491 52.7561 10.7447V10.72L52.734 10.7315C51.8891 10.2464 50.2011 9.26832 49.3553 8.78325V8.79472C48.5183 9.27714 46.8338 10.2499 45.9995 10.7315L45.9775 10.7438L45.9545 10.757C43.1526 12.3728 40.3233 14.0079 37.4799 15.6457C36.344 16.3027 35.2045 16.9589 34.0659 17.6159C28.9357 20.5757 23.7948 23.5408 18.7545 26.4512V63.7459C20.4479 64.724 23.8592 66.6916 25.5552 67.6706V75.519C24.757 75.0586 23.928 74.5797 23.0831 74.0947C22.8 73.9315 22.5178 73.7675 22.2294 73.6017L22.1544 73.5576C21.8942 73.4076 21.6332 73.2586 21.3704 73.106C19.7855 72.1914 18.161 71.2548 16.5708 70.3376C15.8476 69.9196 15.1324 69.5059 14.4259 69.0985C13.5802 68.6107 12.752 68.1336 11.9539 67.6715V22.523C16.1219 20.1171 20.3508 17.6785 24.5912 15.2311C24.9131 15.045 25.2342 14.8598 25.5561 14.6738C27.0501 13.8121 28.5459 12.9496 30.0399 12.0879C31.2481 11.3894 32.4564 10.6935 33.662 9.99857C36.0759 8.60422 38.4757 7.21868 40.8569 5.84462C43.4428 4.35678 46.7765 2.42797 49.3562 0.941895C49.5361 1.04155 49.7275 1.14651 49.9215 1.25763C49.9488 1.27174 49.9771 1.2885 50.0044 1.30437L51.0627 1.9138L52.0629 2.49059C52.2931 2.62111 52.5232 2.75693 52.7561 2.89275C53.8894 3.55774 55.0288 4.22272 55.9708 4.74924C56.0343 4.7854 56.0951 4.82156 56.1568 4.85419V4.86831L56.171 4.86037C59.2807 6.65865 63.23 8.93671 66.3556 10.7385L69.7564 12.7008L69.7555 12.7017Z" fill="black"/>
<path d="M52.0629 2.49145L51.0627 1.91466L50.0044 1.30524C50.6394 1.66242 51.3405 2.06988 52.0637 2.49145" fill="black"/>
<path d="M57.8625 25.3559V65.1615C58.5857 64.7434 59.3309 64.313 60.0903 63.8756C60.4369 63.6763 60.7861 63.4734 61.138 63.2688C66.1872 60.3558 71.7857 57.1305 76.5385 54.3841V62.2246C75.4961 62.8261 74.4492 63.4302 73.3962 64.037C70.2397 65.8609 67.0444 67.7032 63.8491 69.5491L62.9566 70.0616L59.5558 72.0239L57.9234 72.9658C55.6541 74.2764 53.3946 75.579 51.1615 76.8649C51.1615 76.8622 51.1588 76.8596 51.1588 76.8569C51.1174 76.6576 51.0865 73.5205 51.0618 68.7395V21.7893C51.0865 17.003 51.1174 13.8632 51.1588 13.6604C51.1588 13.6578 51.1615 13.6551 51.1615 13.6525C59.4976 18.4582 68.2024 23.4826 76.5394 28.2936V36.1341C73.6325 34.4549 70.4117 32.5975 67.1943 30.741L66.3547 30.2559C65.8309 29.9569 65.3096 29.6544 64.7857 29.3528L62.998 28.3218C61.2245 27.2988 59.495 26.2986 57.8625 25.3567" fill="black"/>
<path d="M51.0619 21.7892V68.7386C51.001 56.6137 51.001 33.9195 51.0619 21.7892Z" fill="black"/>
<path d="M62.9566 70.0606L63.8491 69.5482C61.8727 70.6903 59.8945 71.8316 57.9243 72.9649L59.5567 72.0229L62.9575 70.0606H62.9566Z" fill="black"/>
<path d="M47.6532 13.663V76.9222C46.5781 76.3013 43.6765 74.6247 42.5617 73.9871C41.7556 72.075 40.9239 70.1074 40.0755 68.101L39.2244 66.0857C35.8042 57.9851 32.1909 49.4267 28.9533 41.7617V66.1333L22.1526 62.2087V28.3765C23.3336 27.6921 24.9881 26.7414 26.5262 25.8541C26.6735 25.7686 26.8172 25.6848 26.9584 25.6045C27.1109 25.5155 27.2573 25.4299 27.4046 25.347C27.5519 25.2615 27.6957 25.1777 27.8368 25.0974C28.2583 24.8531 28.657 24.6238 29.0115 24.4157C29.815 26.3171 30.6581 28.3121 31.5224 30.3626C31.7694 30.9473 32.0181 31.5374 32.2712 32.1309C32.9256 33.6831 33.5906 35.2574 34.2582 36.837L34.9373 38.4412C35.3201 39.3505 35.7019 40.2563 36.0847 41.1602L36.8467 42.9647C38.2349 46.257 39.5957 49.4743 40.8543 52.4562V17.5877C42.7495 16.4932 45.757 14.761 47.6523 13.663" fill="black"/>
<path d="M86.74 22.501V67.6856C83.3727 69.6285 79.9693 71.5908 76.5553 73.5611C75.497 74.1731 74.4351 74.7861 73.3706 75.3982C69.4768 77.6453 65.5778 79.8961 61.706 82.1274L61.4873 80.5311L57.0256 79.7135L56.6155 85.0651L54.8084 83.1116L51.0619 85.7971L52.2895 87.5628C51.8547 87.815 51.4385 88.0532 51.0619 88.2719C50.8705 88.3742 50.7047 88.4712 50.5574 88.5603C50.5071 88.5876 50.4604 88.6158 50.4163 88.6432C50.4022 88.6511 50.3863 88.6626 50.3722 88.6714L49.552 89.1424C49.4135 89.1979 49.3024 89.1979 49.1639 89.1424L48.8976 88.9871L48.3569 88.6767C48.3569 88.6767 48.349 88.6714 48.3464 88.6688C48.1576 88.555 47.931 88.4218 47.6532 88.2692C42.3015 85.1851 36.6042 81.8928 31.1635 78.7548C30.4235 78.3253 29.6862 77.9011 28.9551 77.4804V69.632C31.1943 70.9232 33.4671 72.2346 35.7531 73.5531L37.868 74.7729C38.2975 75.0225 38.7297 75.272 39.1618 75.5181L39.5331 75.7368H39.5358L40.2783 76.1637C42.3068 77.3358 44.3326 78.5026 46.3364 79.6615L47.6532 80.4208C48.2238 80.7507 48.7917 81.0779 49.358 81.4051C51.6113 80.1051 53.8779 78.7972 56.156 77.484L57.8634 76.4997C60.1221 75.1944 62.3895 73.8865 64.6561 72.5786C66.3574 71.5979 68.0569 70.6163 69.7555 69.6382C73.1757 67.6653 76.5818 65.7003 79.957 63.7521V26.4389C78.2557 25.4555 74.8602 23.4985 73.1563 22.5142V14.6631C77.4161 17.1185 82.482 20.0456 86.7418 22.501" fill="black"/>
<path d="M40.2783 76.1628L39.5357 75.7359H39.5331L39.1618 75.5172C39.5331 75.7333 39.907 75.9467 40.2783 76.1628Z" fill="black"/>
<path d="M49.163 89.1415C48.9831 89.0754 48.7556 88.9175 48.3569 88.6758L48.8976 88.9863L49.1639 89.1415H49.163Z" fill="black"/>
<path d="M50.3713 88.6705C49.9612 88.9175 49.731 89.0753 49.5511 89.1415L50.3713 88.6705Z" fill="black"/>
<path fill-rule="evenodd" clip-rule="evenodd" d="M89.9661 73.2303C88.9307 73.8301 87.2762 74.9554 86.3881 75.1936C86.3228 74.3875 86.2011 74.6529 86.1817 73.7401L88.5259 72.3625C88.1414 71.754 88.4465 72.1165 87.9941 71.4374C87.4852 71.709 86.2946 72.4922 85.7037 72.7382C85.4691 72.2514 85.4373 71.8051 85.2063 71.3183C86.3801 70.8941 86.7056 70.252 87.9156 69.9689C87.5593 69.3463 87.248 69.2501 87.1183 69.2104L84.5528 70.6136L83.5853 70.9787C84.1003 72.7268 84.0183 70.4214 84.8129 73.6572L85.7972 77.065L86.4278 77.1471C87.3556 76.8922 86.329 76.6946 88.3398 75.4837C88.7834 75.2174 88.9537 75.0648 89.3779 74.802C89.8532 74.5109 89.9432 74.406 90.453 74.1687C90.1416 73.4791 90.1725 73.5099 89.9661 73.2295" fill="black"/>
<path fill-rule="evenodd" clip-rule="evenodd" d="M83.6788 72.0283C83.4636 71.5503 83.3022 71.3492 82.8445 71.4568C81.8294 71.694 83.0085 71.4735 81.7271 72.172C81.7271 73.5549 81.3734 74.3725 81.122 75.4925C79.2047 75.3285 79.6086 73.3009 77.4875 74.4545L79.1368 81.2596C79.6712 81.3531 80.2621 81.3813 80.2057 81.1123L79.128 75.7527C79.8856 76.5306 80.3098 76.7087 80.5452 77.0536C80.6079 77.1409 80.4544 77.4496 80.5082 77.5201C80.6837 77.7715 80.9774 77.8623 81.7077 77.8623C81.8973 77.4549 82.5252 74.4201 82.5252 73.8777C82.7342 74.6582 82.8418 75.5746 83.0314 76.46C83.3084 77.775 83.662 79.09 83.9451 80.3379C84.4117 80.4429 84.8844 80.479 85.3589 80.4711L83.6788 72.0283Z" fill="black"/>
<path fill-rule="evenodd" clip-rule="evenodd" d="M78.2231 80.0663C77.1877 80.666 75.5358 81.7914 74.6485 82.026C74.5806 81.2199 74.4616 81.4862 74.4395 80.5752L76.7837 79.1976C76.3992 78.589 76.7079 78.9515 76.2519 78.2724C75.7457 78.544 74.5551 79.3246 73.9615 79.5733C73.7296 79.0838 73.6987 78.6402 73.4641 78.1507C74.6406 77.7291 74.9634 77.0844 76.1734 76.8013C75.8171 76.1787 75.5058 76.0861 75.3761 76.0464L72.8106 77.446L71.8431 77.8138C72.3608 79.5592 72.2761 77.2538 73.0734 80.4896L74.055 83.8974L74.6856 83.9795C75.6134 83.7281 74.5868 83.527 76.6003 82.3161C77.0413 82.0507 77.2115 81.9007 77.6383 81.6344C78.111 81.3433 78.201 81.241 78.7099 81.0038C78.3986 80.3106 78.433 80.345 78.2231 80.0645" fill="black"/>
<path fill-rule="evenodd" clip-rule="evenodd" d="M75.2915 85.3509L74.7994 84.2053C73.6625 84.0889 70.9276 83.6197 69.9857 83.3992C73.7216 81.1079 71.5106 78.0652 66.3715 80.786V81.615C67.4466 82.1839 67.1803 82.497 67.8876 84.2485C68.3118 85.298 68.6258 86.5027 69.0694 87.4244C69.6294 87.3794 69.6321 87.3282 70.1048 87.218C70.0025 85.9965 69.364 85.3686 69.2758 84.3138C70.1806 84.5254 71.3889 84.7186 72.2312 84.8853C73.3283 85.1031 74.0753 85.3518 75.2915 85.3518M68.6028 83.1117C68.3056 82.549 67.9299 82.0683 67.8673 81.2958C68.0966 81.2393 71.1111 79.7964 71.2672 81.0268C71.3016 81.3381 71.2019 81.361 70.888 81.6177C70.8853 81.6203 70.1692 81.9907 70.1074 82.0304C69.5668 82.3867 69.1911 82.7995 68.6028 83.1108" fill="black"/>
<path fill-rule="evenodd" clip-rule="evenodd" d="M63.9859 83.7008C64.7973 83.2201 65.9235 82.4052 66.4553 82.2694C66.5029 82.1477 66.0593 81.5682 65.8865 81.5197C65.247 81.4748 60.7703 84.4187 60.0436 85.1542C60.0577 85.5026 60.25 85.7513 60.5948 85.918L63.0642 84.3058L63.865 87.3855C64.0176 87.8891 64.1534 88.2851 64.3316 88.7852C64.5971 89.5401 64.5239 89.6107 65.5566 89.6336C65.5337 88.5673 65.0019 87.5716 64.7673 86.6897C64.5238 85.7928 64.3457 84.9364 63.9867 83.6999" fill="black"/>
<path fill-rule="evenodd" clip-rule="evenodd" d="M56.2503 93.0503C55.2149 93.65 53.5604 94.7753 52.6749 95.0135C52.607 94.2074 52.488 94.4737 52.4659 93.56L54.8101 92.1824C54.4256 91.5739 54.7334 91.9364 54.2783 91.2573C53.7721 91.5289 52.5788 92.3121 51.987 92.5581C51.7524 92.0687 51.7242 91.625 51.4896 91.1382C52.6635 90.714 52.9889 90.0719 54.1989 89.7888C53.8426 89.1662 53.5313 89.0701 53.4017 89.0312L50.8361 90.4344L49.8686 90.7996C50.3836 92.5476 50.3016 90.2422 51.0989 93.478L52.0805 96.8858L52.7111 96.9679C53.6389 96.7165 52.6123 96.5154 54.6258 95.3045C55.0668 95.039 55.237 94.8856 55.6612 94.6228C56.1366 94.3317 56.2265 94.2294 56.7363 93.9895C56.425 93.2999 56.4594 93.3334 56.2494 93.0503" fill="black"/>
<path fill-rule="evenodd" clip-rule="evenodd" d="M60.6424 81.5136C59.9148 81.2005 59.5321 80.8901 58.1845 80.8592C57.8802 82.1415 57.6535 83.46 57.6103 84.9135C57.5812 85.8598 57.5212 86.8299 57.4815 87.8795C57.4427 87.8539 56.522 86.8908 56.2036 86.5169C56.1701 86.478 56.5035 86.7735 56.6781 86.8979C56.7434 86.9446 56.8174 86.9164 56.8042 86.9014C56.6322 86.7118 56.3297 86.4922 56.1419 86.2752C55.5316 85.567 54.8154 84.79 54.7299 84.4734C53.8744 84.6948 54.0137 84.8685 53.3391 85.1939C52.5744 85.7566 52.6353 85.6949 52.682 86.0785C52.7138 86.3369 52.5788 86.3308 52.4289 86.4445C53.175 87.3873 56.216 89.6469 57.2117 90.4521C57.2117 91.8456 56.9127 92.3121 56.9127 93.4895L56.8333 94.4164L56.4003 98.3552C56.9171 98.3402 57.9948 98.4883 58.4993 98.3464C58.203 98.0659 58.0284 97.4865 58.0822 97.3595C58.1033 97.3083 58.27 97.9768 58.6334 98.0597C58.6783 98.0694 58.681 97.9045 58.7304 97.8957C58.7709 97.8877 58.8874 98.0156 58.9306 97.9918L59.0488 91.7785C60.6124 92.9418 61.0437 93.4595 63.2689 94.6369C63.5705 94.0654 63.7195 93.8961 64.1226 93.359C64.2902 93.135 64.3819 92.9312 64.4851 92.746C64.4895 92.7372 64.5071 92.7187 64.4983 92.7222C64.2566 92.8104 63.8862 92.5423 63.9462 92.6199C64.0379 92.7381 64.7523 92.4964 64.7003 92.2848C64.6473 92.0784 64.5768 91.827 64.5768 91.4804C62.9055 91.4593 60.7245 90.483 59.4456 89.3214C58.9129 88.8514 59.0038 89.2562 59.0417 88.8011C59.0488 88.7235 59.0699 88.6309 59.0593 88.5012C59.0417 88.4818 59.2543 86.5671 59.3486 86.5565C59.3733 86.5539 59.2525 87.7119 59.2049 88.2754C59.189 88.4695 59.2022 88.5586 59.2049 88.5524C59.3178 88.2763 59.4174 88.212 59.6123 87.181C59.9528 85.388 60.4149 83.2792 60.6416 81.5145M58.8239 90.8772C58.8706 90.8225 59.2384 90.9186 59.5815 91.1559C60.0586 91.4848 60.5763 91.8614 60.7121 92.0096C60.5895 92.1172 59.1784 91.0589 58.8239 90.8781M57.9825 93.508C58.225 93.5733 57.994 96.3144 57.7514 96.8224C57.687 96.3249 57.9296 94.0945 57.9825 93.508ZM57.2902 92.328C57.5098 92.3906 57.3978 93.3334 57.4366 93.6174C57.1491 93.6932 57.2258 92.7884 57.2902 92.328ZM55.5713 87.3432C55.6268 87.2991 55.9161 87.5055 56.2248 87.7851C56.6322 88.1555 57.0423 88.5374 57.1411 88.7261C56.925 88.8628 55.8323 87.6272 55.5713 87.3432Z" fill="#C01818"/>
<path fill-rule="evenodd" clip-rule="evenodd" d="M89.2297 65.0795C89.6451 65.0795 90.0252 65.2523 90.2969 65.5293C90.5712 65.8053 90.7396 66.1881 90.7396 66.6088C90.7396 67.0294 90.5712 67.414 90.2969 67.6891C90.0244 67.9661 89.6451 68.1381 89.2297 68.1381C88.8143 68.1381 88.4342 67.9661 88.1608 67.6891C87.8874 67.4122 87.7181 67.0294 87.7181 66.6088C87.7181 66.1881 87.8874 65.8062 88.1608 65.5293C88.4342 65.2523 88.8126 65.0795 89.2297 65.0795ZM88.638 67.4598H88.8611V66.7093H89.1195C89.1777 66.7093 89.22 66.7111 89.2447 66.7172C89.28 66.7261 89.3135 66.7402 89.347 66.7613C89.3779 66.7834 89.4167 66.8213 89.4608 66.8751C89.5014 66.9289 89.556 67.0065 89.6213 67.1079L89.8453 67.4598H90.1249L89.8312 66.9986C89.7739 66.9086 89.7113 66.8337 89.6451 66.7746C89.6151 66.7472 89.571 66.7181 89.512 66.6899C89.6725 66.667 89.7933 66.6158 89.8718 66.5329C89.9485 66.4509 89.9882 66.3495 89.9882 66.2295C89.9882 66.1369 89.9653 66.0523 89.9185 65.9746C89.8709 65.8988 89.8092 65.845 89.7307 65.815C89.6513 65.785 89.5366 65.7691 89.3858 65.7691H88.6371V67.4598H88.638ZM88.8611 66.5153H89.3417C89.4432 66.5153 89.5243 66.5047 89.5816 66.4835C89.6398 66.4624 89.6813 66.4297 89.7113 66.3821C89.7421 66.3345 89.7571 66.2851 89.7571 66.2295C89.7571 66.1502 89.7289 66.084 89.6707 66.032C89.6125 65.9808 89.5217 65.9552 89.3973 65.9552H88.862V66.5153H88.8611ZM90.0984 65.7251C89.8762 65.5002 89.5675 65.3608 89.2288 65.3608C88.8902 65.3608 88.5806 65.5002 88.3584 65.7251C88.137 65.9508 87.9985 66.2639 87.9985 66.6088C87.9985 66.9536 88.137 67.2667 88.3584 67.4934C88.5806 67.7182 88.8875 67.8576 89.2288 67.8576C89.5702 67.8576 89.8762 67.7182 90.0984 67.4934C90.3189 67.2676 90.4583 66.9545 90.4583 66.6088C90.4583 66.263 90.3189 65.9508 90.0984 65.7251Z" fill="black"/>
</g>
</g>
<defs>
<clipPath id="clip0_102_111438">
<rect width="100" height="100" fill="white"/>
</clipPath>
</defs>
</svg>
